# xmcd
# Copyright (C) 1995-1998 Ti Kan
#
# Track frame offsets:
#       150
#       17435
#       29691
#       45649
#       61642
#       87569
#       100655
#       117964
#       143458
#       159591
#       180340
#
# Disc length: 2538 seconds
#
# Revision: 0
# Processed by: cddbd v1.5.2PL0 Copyright (c) Steve Scherf et al.
# Submitted via: CD-Import v1.0
#
DISCID=7e09e80b
DTITLE=Benni Hemm Hemm - Murta St. Calunga
DYEAR=2009
DGENRE=
TTITLE0=Beethoven I Kaupamannahöfn
TTITLE1=Whaling In The North Atlantic
TTITLE2=Veidiljoo
TTITLE3=Avian I Afganistan
TTITLE4=Allt Sem Pao Fer
TTITLE5=Fjalla-Eyvindur
TTITLE6=Riotmand
TTITLE7=Lokalagio
TTITLE8=Murta And El Paso
TTITLE9=Early Morning Rain
TTITLE10=Beethoven I Brasiliu
EXTD=
EXTT0=
EXTT1=
EXTT2=
EXTT3=
EXTT4=
EXTT5=
EXTT6=
EXTT7=
EXTT8=
EXTT9=
EXTT10=
PLAYORDER=
